<svg width="206" height="281" viewBox="0 0 206 281" fill="none" xmlns="http://www.w3.org/2000/svg">
<path d="M81.1591 117.565L108.9 109.605L78.7368 126.57L81.1591 117.565Z" fill="#C3C2ED"/>
<path d="M89.7737 115.812L97.9301 132.293L103.357 111.865L89.7737 115.812Z" fill="#DADBFA"/>
<path d="M157.667 20.3465L174.776 15.8744L171.374 23.1405L157.667 20.3465Z" fill="#DAE6FA"/>
<path d="M177.909 18.2051L175.872 23.4332L173.987 36.2138L177.909 18.2051Z" fill="#E8EDFA"/>
<path d="M124.481 164.691L120.911 173.783L152.157 153.954L124.481 164.691Z" fill="#CFCEF6"/>
<path d="M127.414 164.056L139.273 138.677L140.289 158.989L127.414 164.056Z" fill="#F0E2FD"/>
<path d="M131.454 250.37L123.312 252.9L138.414 278.115L131.454 250.37Z" fill="#CFCEF6"/>
<path d="M131.88 254.362L155.761 250.748L135.257 271.261L131.88 254.362Z" fill="#F0E2FD"/>
<path d="M184.078 4.57869L196.98 4.11292L199.83 2.07947L198.117 5.25704L198.414 19.778L196.505 9.81012L194.545 12.9318L195.108 7.33904L184.078 4.57869Z" fill="#A1B1D2"/>
<path d="M110.458 49.1709L108.641 56.3379L135.14 42.2428L110.458 49.1709Z" fill="#E8EDFA"/>
<path d="M124.637 61.923L128.902 44.5063L116.653 47.8886L124.637 61.923Z" fill="#D0D7F3"/>
<path d="M88.9406 208.261L85.3088 214.181L111.71 224.1L88.9406 208.261Z" fill="#E8EDFA"/>
<path d="M96.5623 232.837L105.044 218.991L94.1332 211.655L96.5623 232.837Z" fill="#D0D7F3"/>
<path d="M81.6495 91.2969L82.5856 83.9083L108.667 77.2927L81.6495 91.2969Z" fill="#D9D3FF"/>
<path d="M87.1527 84.7135L97.0245 81.1902L102.879 66.0605L87.1527 84.7135Z" fill="#D0D7F3"/>
<path d="M86.2526 96.4741L90.5304 81.8057L100.718 79.4834L86.2526 96.4741Z" fill="#E8EDFA"/>
<path d="M13.8984 106.06L13.9585 99.2628L24.6635 107.944L13.8984 106.06Z" fill="#C0CEEA"/>
<path d="M16.1006 103.187L20.2509 105.546L21.8869 95.4604L16.1006 103.187Z" fill="#DAE6FA"/>
<path d="M16.8257 111.834L17.9491 101.114L22.1362 104.531L16.8257 111.834Z" fill="#E8EDFA"/>
<path d="M146.263 94.8873L144.656 105.951L153.186 110.52L146.263 94.8873Z" fill="#D0D7F3"/>
<path d="M124.158 113.889L143.537 92.7534L144.033 93.9306L142.144 102.836L124.158 113.889Z" fill="#DAE6FA"/>
</svg>
